<svg width="271" height="85" viewBox="0 0 271 85" xmlns="http://www.w3.org/2000/svg"><g fill="#777" fill-rule="evenodd"><path d="M49.461 84.249V69.665c0-2.08 0-8.387-6.698-8.387-4.213 0-7.077 2.96-7.077 8.341v14.63h-5.04V48.437l5.04.01v11.817h.102c2.423-3.586 6.446-3.586 7.506-3.586 4.175 0 7.568 1.791 9.509 4.796 1.063 1.745 1.653 3.88 1.688 6.883V84.25h-5.03zm216.466.013h5.042v-35.82h-5.042zm-199.187 0h5.043v-35.82H66.74zm-8.564-.119h5.041V57.325h-5.041v26.818zm0-29.914h5.041v-5.905h-5.041v5.905zm39.021 14.935c-.246-3.901-3.813-7.802-8.626-7.802-4.823 0-8.385 3.9-8.624 7.802h17.25zm-17.25 3.854c1.253 5.154 5.395 7.27 8.771 7.27 3.704 0 6.401-2.17 7.605-4.477h5.015c-2.555 6.883-8.676 9.054-12.818 9.054-7.563 0-13.587-6.504-13.587-14.065 0-7.992 6.166-14.018 13.688-14.018 7.23 0 13.538 5.88 13.586 13.682 0 .866-.093 2.217-.145 2.554H79.947zm-58.693-6.644c-.805-1.68-2.74-5-7.488-5-6.469 0-8.765 5.377-8.765 9.427 0 4.614 2.918 9.47 8.66 9.47 3.753 0 6.292-2.158 7.543-4.907h5.6c-2.017 5.912-7.21 9.472-13.143 9.472C4.909 84.836 0 77.676 0 70.801c0-7.227 5.293-13.99 13.706-13.99 7.547 0 12.09 5.617 13.098 9.563h-5.551zm235.955 0c-.806-1.68-2.742-5-7.488-5-6.47 0-8.766 5.377-8.766 9.427 0 4.614 2.918 9.47 8.66 9.47 3.753 0 6.292-2.158 7.542-4.907h5.601c-2.017 5.912-7.212 9.472-13.144 9.472-8.751 0-13.66-7.16-13.66-14.035 0-7.227 5.293-13.99 13.707-13.99 7.548 0 12.089 5.617 13.097 9.563h-5.55zm-137.763-5.029c-6.158 0-9.136 5.342-9.136 9.517 0 4.82 3.795 9.384 9.084 9.384 5.25 0 9.296-4.288 9.296-9.384 0-5.67-4.088-9.517-9.244-9.517zm9.148 22.79v-4.14h-.09c-1.927 3.276-5.435 4.822-9.058 4.822-8.988 0-14.139-6.882-14.139-13.894 0-6.505 4.566-14.137 14.139-14.137 3.716 0 7.13 1.526 9.058 4.457h.09V57.5h4.995v26.635h-4.995zm62.496-22.79c-5.641 0-9.393 4.656-9.393 9.437 0 4.791 3.8 9.464 9.393 9.464 5.392 0 9.386-4.471 9.386-9.527 0-4.718-3.76-9.374-9.386-9.374m0 23.472c-8.954 0-14.39-7.453-14.39-14.2 0-7.256 6.105-13.831 14.39-13.831 8.097 0 14.38 6.337 14.38 13.933 0 6.49-5.342 14.098-14.38 14.098M141.778 57.5v14.424c0 6.592 2.932 8.322 6.636 8.322 4.137 0 6.97-2.644 6.97-8.462V57.5h5.009v26.636h-4.564V81.24h-.1c-1.345 2.32-4.482 3.577-7.84 3.577-3.037 0-5.686-.965-7.598-2.64-2.222-1.931-3.511-4.904-3.511-10.253V57.5h4.998zm70.52 6.816c.05-1.08.96-3.249 4.188-3.249 3.246 0 4.323 2.754 4.456 3.642l4.854.018c0-2.084-2.143-7.953-9.274-7.953-7.117 0-8.766 5.024-8.877 7.358-.391 8.67 13.96 7.13 13.714 12.756-.046 1.047-1.063 3.568-5.194 3.568-4.045 0-5.326-3.345-5.423-4.695h-4.806c.264 2.616 2.146 9.056 10.294 9.056 8.126 0 9.699-5.757 9.779-7.896.405-9.034-13.89-8.48-13.71-12.605m21.181 16.969c0 1.666-1.343 3-3.009 3a3.006 3.006 0 0 1-3.015-3c0-1.67 1.358-3.036 3.015-3.036 1.666 0 3.009 1.366 3.009 3.037m-61.155 2.852h-4.998V62.08h-4.33v-4.564h4.33v-8.939h4.998v8.939h4.375v4.564h-4.375z"/><path d="M228.197 52.243c-20.602-18.858-57.077-20.462-57.433-20.468l-1.643-.043-1.211-1.106c-.236-.208-24.001-21.69-56.98-21.69-39.333 0-66.043 29.43-66.309 29.738l-1.496 1.641-41.73-4.02 1.312-8.705 36.859 3.431C46.226 24.364 72.767.001 110.93.001c32.436 0 56.108 18.275 61.707 22.939 7.726.473 40.67 3.627 61.356 22.548l-5.796 6.755z"/></g></svg>